<svg xmlns="http://www.w3.org/2000/svg" viewBox="0 0 231 231">
    <path d="M33.83,33.83a115.5,115.5,0,1,1,0,163.34,115.49,115.49,0,0,1,0-163.34Z" style="fill:#FF9800;"></path>
    <path d="m115.5 51.75a63.75 63.75 0 0 0-10.5 126.63v14.09a115.5 115.5 0 0 0-53.729 19.027 115.5 115.5 0 0 0 128.46 0 115.5 115.5 0 0 0-53.729-19.029v-14.084a63.75 63.75 0 0 0 53.25-62.881 63.75 63.75 0 0 0-63.65-63.75 63.75 63.75 0 0 0-0.09961 0z" style="fill:#E2AF6B;"></path>
    <path d="m115.5 231a115 115 0 0 0 64.23-19.5 114.79 114.79 0 0 0-38-16.5l-2.41-9a125.19 125.19 0 0 0-13.32-2.28v8.75q3.52 0.32 7 0.84l-17.5 17.48-17.5-17.48q3.45-0.52 7-0.84v-8.75a125.55 125.55 0 0 0-13.34 2.28l-2.41 9a114.79 114.79 0 0 0-38 16.5 114.94 114.94 0 0 0 64.25 19.5z" style="fill:#0D0046;"></path>
    <path d="m132.98 193.33-36.185 36.155-2.4-0.42 36.108-36.081z" style="fill:#ffce73;"></path>
    <path d="m32.902 67.662c-0.36295 1.7227-6.2342 30.695 5.6133 52.596 4.5843 8.4743 9.0081 13.239 12.75 15.893a67.7 67.7 0 0 1-3.4688-21.35 67.7 67.7 0 0 1 2.332-17.658c-4.4914-2.4646-10.868-6.9012-13.834-13.52-4.1626-9.285-3.6155-14.673-3.3926-15.961zm165.19 0c0.22292 1.2882 0.77005 6.6759-3.3926 15.961-2.9664 6.6183-9.3426 11.055-13.834 13.52a67.7 67.7 0 0 1 2.332 17.658 67.7 67.7 0 0 1-3.4688 21.35c3.7419-2.6532 8.1657-7.4183 12.75-15.893 11.847-21.9 5.9762-50.873 5.6133-52.596z" style="fill:#a21d00;"></path>
    <path d="m115.73 13.191c-7.3787-0.13351-13.509 5.7888-13.631 13.168-0.10128 5.8827 3.4508 10.518 8.0566 12.52 1.061 0.46115 2.1869 0.78009 3.3418 0.95703v8.4291c0.66778-0.02035 1.3358-0.03077 2.0039-0.03125 0.66547-9e-5 1.3309 0.0097 1.9961 0.0293v-8.4115c2.6002-0.38406 5.1586-1.5484 7.3086-3.625 4.2322-4.0878 4.9991-9.8755 3.1582-14.549-1.8407-4.6726-6.3502-8.3834-12.232-8.4863z" style="fill:#fff;"></path>
    <path d="m145.39 104.7-11.52 11.2h17.26m-65.52-11.2 11.52 11.2h-17.26" style="fill:none;stroke-linecap:round;stroke-linejoin:round;stroke-width:5.4998px;stroke:#000;"></path>
    <path d="m122.83 151.88a10.49 10.489 0 0 1-14.66 0" style="fill:none;stroke-linecap:round;stroke-linejoin:round;stroke-width:6.1996px;stroke:#000;"></path>
</svg>